<?xml version="1.0" encoding="UTF-8"?><svg id="Layer_2" xmlns="http://www.w3.org/2000/svg" viewBox="0 0 900 247.2869"><g id="Components"><g id="_276efb71-0f5b-4af2-944a-0563dfe86736_5"><path d="M899.2829,143.6651s0-.0438-.3621-.0852c-.0047-.4272-20.3211-.6378-55.12-.6792.284-40.3286.4059-82.7836.1302-110.7891-.1881-19.1165-.5692-31.4324-1.194-31.8217-.2071-.1964-.3645-.2911-.5183-.2899-.1041.0012-.2083.0024-.3077.1988,0,0-.0521,0-.1041.1006-1.7951.0177-2.6281,72.3574-2.7133,142.5966-149.3474-.1112-542.7891,2.6364-768.7987,4.8634l-62.0554.6567C2.8624,148.4694-.0059,149.1178,0,149.7379c.0059.6189,2.8885,1.2555,8.2655,1.2472,124.8327-.3006,563.1882-2.627,774.8123-4.7131,21.134-.2083,39.9665-.4142,56.0122-.6165-.0272,29.9272.0805,59.2947.3077,82.3303l.2201,17.048c.0142,1.4768.7467,2.2601,1.4697,2.253.723-.0071,1.491-.8047,1.5288-2.2826.3798-17.4113.8591-57.0216,1.1656-99.4079,33.9588-.4402,54.1923-.8567,55.146-1.22.723-.1834,1.0733-.3207,1.0721-.452-.0012-.0899-.0024-.1787-.7171-.2591Z" style="fill:#fff;"/><path d="M78.8467,40.4457v6.9792h14.5406v62.8885h6.1805v-62.8885h14.5406v-6.9792h-35.2616Z" style="fill:#fff;"/><path d="M152.3743,40.4457c-17.4728,0-31.6986,15.6801-31.6986,34.9457s14.2258,34.922,31.6986,34.922c17.4965,0,31.6975-15.6553,31.6975-34.922s-14.201-34.9457-31.6975-34.9457ZM152.3743,103.3579c-14.0803,0-25.5194-12.5526-25.5194-27.9665,0-15.4375,11.4391-27.9665,25.5194-27.9665s25.543,12.5289,25.543,27.9665c0,15.4139-11.464,27.9665-25.543,27.9665Z" style="fill:#fff;"/><path d="M228.8331,40.4457c-17.4977,0-31.7223,15.6801-31.7223,34.9457s14.2246,34.922,31.7223,34.922c17.4728,0,31.6986-15.6553,31.6986-34.922s-14.2258-34.9457-31.6986-34.9457ZM228.8331,103.3579c-14.0803,0-25.543-12.5526-25.543-27.9665,0-15.4375,11.4628-27.9665,25.543-27.9665,14.0554,0,25.5182,12.5289,25.5182,27.9665,0,15.4139-11.4628,27.9665-25.5182,27.9665Z" style="fill:#fff;"/><path d="M267.0991,40.4457v6.9792h14.5406v62.8885h6.1793v-62.8885h14.5406v-6.9792h-35.2604Z" style="fill:#fff;"/><path d="M350.0045,40.4457v44.6394h-25.7856v-44.6394h-6.1556v69.8677h6.1556v-18.2728h25.7856v18.2728h6.1556V40.4457h-6.1556Z" style="fill:#fff;"/><path d="M421.3502,42.384l-22.0534,67.9294h6.0834l3.1263-9.4997h25.6637l3.15,9.4997h6.0586l-22.0286-67.9294ZM410.7843,93.8582l10.5658-32.7163,10.5658,32.7163h-21.1316Z" style="fill:#fff;"/><path d="M483.0754,87.9203c6.6881-4.822,10.6629-12.9407,10.6629-21.7375,0-14.1773-10.5185-25.7371-23.4344-25.7371h-11.8272v69.8677h6.1556v-18.2728h5.6716c1.8898,0,3.7807-.2662,5.7426-.7999l.7277-.2177,9.4026,19.2904h7.004l-10.7114-21.9316.6059-.4615ZM470.3039,85.0851h-5.6716v-37.6602h5.6716c9.5233,0,17.2539,8.4098,17.2539,18.7579,0,10.4203-7.7306,18.9023-17.2539,18.9023Z" style="fill:#fff;"/><path d="M539.0806,47.4249v-6.9543c-18.3213.4603-32.0134,15.3156-32.0134,34.9208,0,19.5815,13.6921,34.4368,32.0134,34.922v-6.9555c-14.8068-.484-25.8578-12.3349-25.8578-27.9665s11.051-27.505,25.8578-27.9665Z" style="fill:#fff;"/><path d="M585.7801,40.4457v44.6394h-25.7856v-44.6394h-6.1556v69.8677h6.1556v-18.2728h25.7856v18.2728h6.1556V40.4457h-6.1556Z" style="fill:#fff;"/><path d="M606.694,40.4457v69.8677h6.1793V40.4457h-6.1793Z" style="fill:#fff;"/><path d="M627.6079,40.4457v6.9792h14.5406v62.8885h6.1805v-62.8885h14.5406v-6.9792h-35.2616Z" style="fill:#fff;"/><path d="M713.8337,47.4249v-6.9792h-35.2604v69.8677h35.2604v-6.9555h-29.1048v-11.3172h21.108v-6.9555h-21.108v-37.6602h29.1048Z" style="fill:#fff;"/><path d="M756.1467,47.4249v-6.9543c-18.3213.4603-32.0371,15.3156-32.0371,34.9208,0,19.5815,13.7158,34.4368,32.0371,34.922v-6.9555c-14.8068-.484-25.8578-12.3349-25.8578-27.9665s11.051-27.505,25.8578-27.9665Z" style="fill:#fff;"/><path d="M770.8814,40.4457v6.9792h14.5406v62.8885h6.1793v-62.8885h14.5406v-6.9792h-35.2604Z" style="fill:#fff;"/><path d="M478.1931,191.574c0,9.9233-8.0915,17.9675-18.0692,17.9675h-7.5354v-35.9326h7.5354c9.9777,0,18.0692,8.0442,18.0692,17.9651ZM474.7615,191.574c0-8.0394-6.5532-14.5548-14.6376-14.5548h-4.1037v29.1096h4.1037c8.0844,0,14.6376-6.5153,14.6376-14.5548Z" style="fill:#fff;"/><path d="M511.5484,209.5415h-21.8061v-35.9326h21.8061v3.4103h-18.3745v17.1746h16.0481v3.4103h-16.0481v8.5246h18.3745v3.4127Z" style="fill:#fff;"/><path d="M526.3445,209.5415h-3.4292v-36.3609l21.9316,26.9157v-26.4897h3.4316v36.1171l-21.9339-26.9157v26.7335Z" style="fill:#fff;"/><path d="M567.6257,177.0192h-9.3127v-3.4103h22.0523v3.4103h-9.3103v32.5222h-3.4292v-32.5222Z" style="fill:#fff;"/><path d="M582.9638,209.5415l14.8601-36.6615,14.6802,36.6615h-3.6919l-3.0246-7.5519h-16.0647l-3.0624,7.5519h-3.6967ZM591.105,198.5792h13.317l-6.6171-16.5262-6.6999,16.5262Z" style="fill:#fff;"/><path d="M641.9331,209.5415h-19.236v-35.9349h3.4316v32.5222h15.8044v3.4127Z" style="fill:#fff;"/><path d="M697.1537,202.806l2.1844,2.6317c-6.1461,5.0362-14.8837,5.4787-21.5127,1.0887-6.6266-4.3877-9.5849-12.5739-7.2774-20.1542,2.3051-7.578,9.3316-12.7632,17.2953-12.7632,4.0351-.0142,7.959,1.33,11.1303,3.8126l-2.1158,2.6838c-2.5678-2.0093-5.7462-3.0979-9.0169-3.0861-8.0844,0-14.6376,6.5153-14.6376,14.5548s6.5532,14.5548,14.6376,14.5548c3.3985,0,6.6905-1.1762,9.3127-3.3227Z" style="fill:#fff;"/><path d="M707.0817,209.5415l14.8601-36.6615,14.6802,36.6615h-3.6919l-3.0246-7.5519h-16.0647l-3.0624,7.5519h-3.6967ZM715.223,198.5792h13.317l-6.6171-16.5262-6.6999,16.5262Z" style="fill:#fff;"/><path d="M750.2988,209.5415h-3.4292v-35.9349h13.4164c6.1627,0,11.3362,4.6173,11.9964,10.7114.6627,6.0917-3.4008,11.7006-9.4216,13.007l9.3624,12.2165h-4.3144l-9.147-11.9373h-8.4607l-.0024,11.9373ZM750.3012,194.1939h9.9848c4.7688,0,8.6358-3.8458,8.6358-8.5885s-3.8671-8.5861-8.6358-8.5861h-9.9848v17.1746Z" style="fill:#fff;"/><path d="M805.8791,209.5415h-21.8061v-35.9326h21.8061v3.4103h-18.3745v17.1746h16.0481v3.4103h-16.0481v8.5246h18.3745v3.4127Z" style="fill:#fff;"/></g></g></svg>