<?xml version="1.0" encoding="UTF-8"?><svg id="Layer_2" xmlns="http://www.w3.org/2000/svg" viewBox="0 0 900 482.4866"><g id="Components"><g id="_33c12150-f8a5-4996-ba41-377ca49c1752_22"><path d="M8.2389,413.1594l62.0545-.6596c283.0167-2.7896,828.604-6.2657,828.6274-3.8904.3625.0444.363.0923.363.0923.7143.0861.7153.182.7162.2779.0014.141-.3486.2884-1.0708.4845-1.4318.584-46.2671,1.2643-115.85,1.9502-211.6237,2.0859-649.98,4.2681-774.8132,4.5012-5.3776.005-8.2595-.6803-8.266-1.3447s2.8618-1.3584,8.2389-1.4114Z" style="fill:#d47d45;"/><path d="M59.9539,304.6009v7.4592h15.5961v67.4804h6.6278v-67.4804h15.5961v-7.4592h-37.8201Z" style="fill:#d47d45;"/><path d="M138.818,304.6009c-18.7413,0-33.9998,16.8171-33.9998,37.4558,0,20.6654,15.2585,37.4838,33.9998,37.4838,18.7679,0,33.9998-16.8184,33.9998-37.4838,0-20.6387-15.2319-37.4558-33.9998-37.4558ZM138.818,372.08c-15.1011,0-27.3707-13.4651-27.3707-30.0233,0-16.5315,12.2695-29.9967,27.3707-29.9967s27.3973,13.4651,27.3973,29.9967c0,16.5582-12.2949,30.0233-27.3973,30.0233Z" style="fill:#d47d45;"/><path d="M220.8017,304.6009c-18.7413,0-33.9998,16.8171-33.9998,37.4558,0,20.6654,15.2585,37.4838,33.9998,37.4838,18.7679,0,34.0252-16.8184,34.0252-37.4838,0-20.6387-15.2573-37.4558-34.0252-37.4558ZM220.8017,372.08c-15.0758,0-27.3707-13.4651-27.3707-30.0233,0-16.5315,12.2949-29.9967,27.3707-29.9967,15.1024,0,27.3973,13.4651,27.3973,29.9967,0,16.5582-12.2949,30.0233-27.3973,30.0233Z" style="fill:#d47d45;"/><path d="M261.8723,304.6009v7.4592h15.5961v67.4804h6.6278v-67.4804h15.5961v-7.4592h-37.8201Z" style="fill:#d47d45;"/><path d="M350.7961,304.6009v47.8533h-27.6575v-47.8533h-6.6025v74.9396h6.6025v-19.6259h27.6575v19.6259h6.6025v-74.9396h-6.6025Z" style="fill:#d47d45;"/><path d="M427.321,306.6799l-23.6544,72.8606h6.525l3.3533-10.1905h27.5268l3.3787,10.1905h6.4984l-23.6277-72.8606ZM415.9869,361.8641l11.3341-35.0646,11.3328,35.0646h-22.6669Z" style="fill:#d47d45;"/><path d="M493.5259,355.5219c7.1749-5.1733,11.4382-13.8802,11.4382-23.3168,0-15.2319-11.2821-27.6042-25.1356-27.6042h-12.6858v74.9396h6.6025v-19.6259h6.0834c2.0269,0,4.0539-.2602,6.1595-.858l.7806-.2082,10.0852,20.692h7.5112l-11.4889-23.5503.6498-.4683ZM479.8285,352.4542h-6.0834v-40.3941h6.0834c10.2147,0,18.5064,9.0457,18.5064,20.145,0,11.178-8.2918,20.2491-18.5064,20.2491Z" style="fill:#d47d45;"/><path d="M553.5979,312.0867v-7.4858c-19.6513.5191-34.3374,16.4541-34.3374,37.4558,0,21.0296,14.6861,36.9634,34.3374,37.4838v-7.4871c-15.883-.4937-27.7349-13.2303-27.7349-29.9967s11.8519-29.4763,27.7349-29.97Z" style="fill:#d47d45;"/><path d="M603.6875,304.6009v47.8533h-27.6575v-47.8533h-6.6025v74.9396h6.6025v-19.6259h27.6575v19.6259h6.6012v-74.9396h-6.6012Z" style="fill:#d47d45;"/><path d="M626.1196,304.6009v74.9396h6.6278v-74.9396h-6.6278Z" style="fill:#d47d45;"/><path d="M648.5518,304.6009v7.4592h15.5961v67.4804h6.6291v-67.4804h15.5961v-7.4592h-37.8214Z" style="fill:#d47d45;"/><path d="M741.037,312.0601v-7.4592h-37.8214v74.9396h37.8214v-7.4605h-31.2189v-12.1654h22.6403v-7.4605h-22.6403v-40.3941h31.2189Z" style="fill:#d47d45;"/><path d="M786.4217,312.0867v-7.4858c-19.6513.5191-34.364,16.4541-34.364,37.4558,0,21.0296,14.7128,36.9634,34.364,37.4838v-7.4871c-15.8817-.4937-27.7349-13.2303-27.7349-29.9967s11.8532-29.4763,27.7349-29.97Z" style="fill:#d47d45;"/><path d="M802.226,304.6009v7.4592h15.5961v67.4804h6.6278v-67.4804h15.5961v-7.4592h-37.8201Z" style="fill:#d47d45;"/><path d="M287.9947,463.0194c0,10.6436-8.6789,19.2718-19.3809,19.2718h-8.0824v-38.541h8.0824c10.702,0,19.3809,8.6281,19.3809,19.2692ZM284.3139,463.0194c0-8.6231-7.0289-15.6114-15.7002-15.6114h-4.4016v31.2227h4.4016c8.6713,0,15.7002-6.9883,15.7002-15.6114Z" style="fill:#d47d45;"/><path d="M323.7713,482.2912h-23.3891v-38.541h23.3891v3.6579h-19.7084v18.4214h17.2131v3.6579h-17.2131v9.1434h19.7084v3.6604Z" style="fill:#d47d45;"/><path d="M339.6416,482.2912h-3.6782v-39.0005l23.5237,28.8696v-28.4127h3.6807v38.739l-23.5262-28.8696v28.6741Z" style="fill:#d47d45;"/><path d="M383.9195,447.408h-9.9887v-3.6579h23.6531v3.6579h-9.9862v34.8831h-3.6782v-34.8831Z" style="fill:#d47d45;"/><path d="M400.3711,482.2912l15.9388-39.3229,15.7459,39.3229h-3.96l-3.2441-8.1001h-17.2309l-3.2847,8.1001h-3.965ZM409.1033,470.5332h14.2838l-7.0975-17.7259-7.1863,17.7259Z" style="fill:#d47d45;"/><path d="M463.6212,482.2912h-20.6324v-38.5436h3.6807v34.8831h16.9517v3.6604Z" style="fill:#d47d45;"/><path d="M522.8505,475.0668l2.343,2.8227c-6.5923,5.4018-15.9642,5.8765-23.0744,1.1677-7.1076-4.7063-10.2807-13.4867-7.8057-21.6173,2.4724-8.1281,10.009-13.6898,18.5509-13.6898,4.328-.0152,8.5367,1.4266,11.9382,4.0894l-2.2694,2.8786c-2.7542-2.1551-6.1633-3.3228-9.6714-3.3101-8.6713,0-15.7002,6.9883-15.7002,15.6114s7.0289,15.6114,15.7002,15.6114c3.6452,0,7.1761-1.2616,9.9887-3.564Z" style="fill:#d47d45;"/><path d="M533.4992,482.2912l15.9388-39.3229,15.7459,39.3229h-3.96l-3.2441-8.1001h-17.2309l-3.2847,8.1001h-3.965ZM542.2314,470.5332h14.2838l-7.0975-17.7259-7.1863,17.7259Z" style="fill:#d47d45;"/><path d="M579.8535,482.2912h-3.6782v-38.5436h14.3904c6.6101,0,12.1591,4.9525,12.8673,11.4889.7108,6.5339-3.6477,12.55-10.1055,13.9512l10.042,13.1034h-4.6276l-9.811-12.8039h-9.0749l-.0025,12.8039ZM579.8561,465.8295h10.7096c5.1149,0,9.2627-4.125,9.2627-9.212s-4.1478-9.2094-9.2627-9.2094h-10.7096v18.4214Z" style="fill:#d47d45;"/><path d="M639.4686,482.2912h-23.3891v-38.541h23.3891v3.6579h-19.7084v18.4214h17.2131v3.6579h-17.2131v9.1434h19.7084v3.6604Z" style="fill:#d47d45;"/><path d="M452.16,177.1307c5.7494,7.3159,10.5791,14.124,16.5001,21.7015,7.0501,6.9021,12.693,24.819,24.4747,20.64,8.5154,2.6525,27.5337-61.0041,33.4269-71.2196,7.779-19.3045,15.8924-38.6675,23.4129-58.1877,2.977-12.1668,14.6602-24.9391,9.0442-37.5381-49.8725-73.7429-26.8002-57.9991-104.8317-24.453-7.6088,3.8172-15.6352,7.1532-23.2561,10.9144-11.0261,3.1007-20.3126,11.532-17.1001,23.9495,1.7809,16.2818,3.9436,32.5652,6.0673,48.9184,1.9136,8.7966,1.9039,19.6634,3.8748,28.8327.4222,1.9643,3.3239,1.6688,3.4056-.3388.8215-20.1659-4.1402-40.6536-5.1059-61.0583.271-8.8831-4.1848-19.0877-.3081-27.3294,12.1464-9.0215,28.1506-12.6825,41.6378-19.9628,16.9173-7.7966,32.9907-15.9784,49.8173-24.0361,8.3486-3.8029,11.0663,8.3921,15.7104,12.9565,7.4449,11.9715,15.6781,23.2863,23.5208,34.7015,3.5752,4.5738-1.1802,9.5609-2.3067,14.5021-4.5282,12.5051-9.1465,24.987-14.0299,37.1618-9.628,26.6818-20.6799,52.2002-30.919,78.4981-2.5934,6.68-5.0403,13.0374-7.7199,19.4761-1.8045,4.3134-3.3231,11.0432-9.3959,9.4039-10.871-11.1701-20.4286-27.7423-31.8194-39.9487-1.5079-3.6815-5.3333-7.9744-7.9703-11.2904-1.9695-2.4766-10.9337-13.6654-11.5079-14.2342-.7271-.7203-1.4886-1.3372-2.0401-1.2127-.2423.0547-.3986.125-.6137.2098-1.9589,1.4236.4257,3.8358,1.5525,5.644,1.3735,2.7062,5.5745,8.0853,9.3801,13.592,2.1694,2.9101,6.7321,9.3111,7.0991,9.7074Z" style="fill:#d47d45;"/><path d="M473.9186,74.4497c-2.7801,19.1622-7.2835,39.9453-9.5937,59.4583-2.6155,6.8291-2.1889,17.5318-5.2432,24.9927-15.1823,15.8703-30.321,32.0155-45.6738,47.7076-11.6467,14.5213-17.5529,6.651-21.2915-7.8655-3.1879-9.2695-6.4503-18.5984-9.7062-27.7627-12.1544-33.287-23.3875-66.7384-35.1464-100.1653-1.0862-10.6361,13.8057-29.5694,17.9048-40.6489,3.8357-5.1366,4.7938-13.4931,10.6103-16.5045,13.4408,2.9292,26.2025,10.1863,39.5526,14.2625,8.4624,2.8112,77.7393,30.0701,39.9312,9.8564-20.875-9.1484-42.4699-16.7956-63.5017-25.8108-23.1756-13.1894-25.4379,1.8148-35.4295,19.4553-3.8567,10.4426-20.7299,30.9091-16.0396,40.8566,7.8954,25.0726,16.9407,50.6822,26.2519,75.5226,6.2964,18.9213,14.2636,38.1953,20.6787,57.2972,11.2529,33.3788,30.6785,5.0916,44.4272-8.8636,10.6526-11.6529,22.9182-22.8052,32.7924-35.2075,3.3335-10.2608,4.0793-21.6802,5.763-32.5822,2.8253-16.3633,6.5012-35.2729,8.2867-52.6828,1.681-4.4116,1.8384-10.7623,3.0589-15.653.6675-4.1735,1.3614-7.7427.9156-10.492-.4935-5.3615-4.2427-9.8059-8.7438-11.8909-1.288-.5966-2.7101-1.4142-2.9994-.1276.0327.2596.1054.5273.336.8237,2.4274,2.7927,6.8136,6.2571,6.9105,11.8477.043,2.4789-1.887,12.4212-1.887,12.4212-.6195,3.5538-2.1294,11.2214-2.164,11.7556ZM479.9636,63.0596c.2208-1.1102.2499.5907.0034,1.2074-.0016-.548-.0026-.8788-.0034-1.2074Z" style="fill:#d47d45;"/></g></g></svg>