<?xml version="1.0" encoding="UTF-8"?><svg id="Layer_2" xmlns="http://www.w3.org/2000/svg" viewBox="0 0 900 214.9237"><g id="Components"><g id="ca6e70db-2122-48aa-8d7e-23abb4926741_1"><path d="M844.501,39.6308l-61.5771-22.532c-3.4813-1.3296-7.3798.2403-9.0514,3.645l-15.991,32.5705c-.9074,1.8481-1.0284,3.9994-.3343,5.9425l32.1019,87.7056c1.8591,5.2043,8.394,6.5987,12.12,2.5863l36.2916-30.5698c1.0514-1.1322,1.7306-2.5742,1.9422-4.1232l9.1747-67.1743c.4749-3.4774-1.4702-6.826-4.6765-8.0506Z" style="fill:#d47d45; opacity:.3;"/><path d="M814.574,44.8018l56.3743-27.8646c2.7803-1.3742,6.149-.4883,7.8919,2.0756l20.0866,29.5479c1.1411,1.6786,1.3888,3.8086.6634,5.704l-37.4726,94.2955c-1.7122,4.4733-7.6352,5.4051-10.6402,1.6739l-32.1776-37.1892c-.7348-.9124-1.1962-2.0138-1.331-3.1771l-6.8107-58.7896c-.3015-2.6028,1.0655-5.1145,3.4159-6.2763Z" style="fill:#7f7947; opacity:.39;"/><path d="M894.4203,187.3252s-.001-.0391-.361-.074c-.0072-.6654-64.8418-.6459-161.3033-.2211.5708-43.6865,1.1251-118.7069.7261-159.1209-.1635-16.6146-.4947-27.3187-1.0367-27.6571-.181-.1707-.3178-.253-.4505-.252-.0915.001-.182.0021-.2684.1728,0,0-.0453.001-.0895.0874-2.1289.0206-2.7028,117.0233-2.1896,186.7842-182.8782.8176-476.4413,3.0596-659.5313,4.8635l-61.7194.6479C2.8488,192.6083-.0051,193.1761,0,193.7139c.0051.5389,2.8704,1.0881,8.2184,1.0747,115.1207-.3857,498.2949-2.6184,721.2538-4.5951.0216,2.7316.0453,5.3932.0699,7.9551l.1913,14.8169c.0134,1.2845.649,1.9643,1.2773,1.9582.6284-.0062,1.2969-.6993,1.3298-1.9839.1172-5.3901.2458-13.2526.3744-22.7751,16.302-.145,31.7555-.289,46.126-.4309,69.2065-.6819,113.8002-1.3144,115.2256-1.7905.7179-.1604,1.0665-.2808,1.0655-.3949-.001-.0771-.0021-.1553-.7117-.2232Z" style="fill:#b2a991;"/><path d="M68.5309,35.1658v6.0442h12.6376v54.6797h5.3706v-54.6797h12.6376v-6.0442h-30.6458Z" style="fill:#5f5b35;"/><path d="M132.4347,35.1658c-15.1861,0-27.5502,13.6064-27.5502,30.3506s12.364,30.3732,27.5502,30.3732,27.5502-13.628,27.5502-30.3732-12.364-30.3506-27.5502-30.3506ZM132.4347,89.8445c-12.2375,0-22.2001-10.9108-22.2001-24.328,0-13.3956,9.9626-24.3064,22.2001-24.3064s22.2001,10.9108,22.2001,24.3064c0,13.4172-9.9626,24.328-22.2001,24.328Z" style="fill:#5f5b35;"/><path d="M198.8665,35.1658c-15.1861,0-27.5502,13.6064-27.5502,30.3506s12.364,30.3732,27.5502,30.3732c15.2077,0,27.5502-13.628,27.5502-30.3732s-12.3424-30.3506-27.5502-30.3506ZM198.8665,89.8445c-12.2375,0-22.1785-10.9108-22.1785-24.328,0-13.3956,9.941-24.3064,22.1785-24.3064s22.2001,10.9108,22.2001,24.3064c0,13.4172-9.9626,24.328-22.2001,24.328Z" style="fill:#5f5b35;"/><path d="M232.1451,35.1658v6.0442h12.6376v54.6797h5.35v-54.6797h12.6592v-6.0442h-30.6468Z" style="fill:#5f5b35;"/><path d="M304.2015,35.1658v38.7757h-22.411v-38.7757h-5.3706v60.7239h5.3706v-15.9029h22.411v15.9029h5.349v-60.7239h-5.349Z" style="fill:#5f5b35;"/><path d="M366.2099,36.8299l-19.1672,59.0598h5.2873l2.7161-8.278h22.3061l2.7172,8.278h5.2862l-19.1456-59.0598ZM357.0052,81.5665l9.2046-28.413,9.183,28.413h-18.3877Z" style="fill:#5f5b35;"/><path d="M419.8559,76.4273c5.7922-4.192,9.2684-11.2471,9.2684-18.8937,0-12.3424-9.1419-22.3678-20.3685-22.3678h-10.2783v60.7239h5.35v-15.9029h4.9283c1.6435,0,3.2859-.2314,4.9921-.6952l.6325-.1687,8.1721,16.7668h6.0864l-9.3095-19.0829.5266-.3795ZM408.7559,73.9415h-4.9283v-32.7315h4.9283c8.278,0,14.9969,7.3298,14.9969,16.3236,0,9.0576-6.7189,16.4079-14.9969,16.4079Z" style="fill:#5f5b35;"/><path d="M468.5325,41.2316v-6.0658c-15.9235.4206-27.8237,13.3328-27.8237,30.3506,0,17.0404,11.9002,29.9516,27.8237,30.3517v-6.0452c-12.87-.4001-22.4737-10.7206-22.4737-24.3064s9.6037-23.8848,22.4737-24.2848Z" style="fill:#5f5b35;"/><path d="M509.1193,35.1658v38.7757h-22.41v-38.7757h-5.35v60.7239h5.35v-15.9029h22.41v15.9029h5.35v-60.7239h-5.35Z" style="fill:#5f5b35;"/><path d="M527.2972,35.1658v60.7239h5.35v-60.7239h-5.35Z" style="fill:#5f5b35;"/><path d="M545.4741,35.1658v6.0442h12.6376v54.6797h5.3716v-54.6797h12.6376v-6.0442h-30.6468Z" style="fill:#5f5b35;"/><path d="M620.4152,41.21v-6.0442h-30.6468v60.7239h30.6468v-6.0452h-25.2968v-9.8577h18.3455v-6.0452h-18.3455v-32.7315h25.2968Z" style="fill:#5f5b35;"/><path d="M657.169,41.2316v-6.0658c-15.9225.4206-27.8237,13.3328-27.8237,30.3506,0,17.0404,11.9012,29.9516,27.8237,30.3517v-6.0452c-12.8474-.4001-22.4737-10.7206-22.4737-24.3064s9.6263-23.8848,22.4737-24.2848Z" style="fill:#5f5b35;"/><path d="M669.9969,35.1658v6.0442h12.6376v54.6797h5.3706v-54.6797h12.6376v-6.0442h-30.6458Z" style="fill:#5f5b35;"/><path d="M415.6105,141.5241c0,8.6246-7.0325,15.616-15.7044,15.616h-6.5492v-31.2299h6.5492c8.6719,0,15.7044,6.9914,15.7044,15.6139ZM412.628,141.5241c0-6.9873-5.6956-12.6499-12.7219-12.6499h-3.5667v25.2999h3.5667c7.0264,0,12.7219-5.6627,12.7219-12.6499Z" style="fill:#5f5b35;"/><path d="M444.6005,157.1401h-18.9523v-31.2299h18.9523v2.964h-15.9698v14.9269h13.9479v2.964h-13.9479v7.409h15.9698v2.9661Z" style="fill:#5f5b35;"/><path d="M457.4602,157.1401h-2.9805v-31.6022l19.0613,23.3932v-23.0229h2.9825v31.3904l-19.0634-23.3932v23.2348Z" style="fill:#5f5b35;"/><path d="M493.3388,128.8742h-8.0939v-2.964h19.1662v2.964h-8.0919v28.266h-2.9805v-28.266Z" style="fill:#5f5b35;"/><path d="M506.6696,157.1401l12.9153-31.8635,12.759,31.8635h-3.2088l-2.6287-6.5636h-13.9623l-2.6616,6.5636h-3.2129ZM513.7453,147.6126h11.5742l-5.7511-14.3633-5.8231,14.3633Z" style="fill:#5f5b35;"/><path d="M557.9214,157.1401h-16.7185v-31.232h2.9825v28.266h13.736v2.9661Z" style="fill:#5f5b35;"/><path d="M605.9151,151.2862l1.8985,2.2873c-5.3418,4.3771-12.9359,4.7617-18.6972.9462-5.7593-3.8135-8.3305-10.9283-6.325-17.5166,2.0034-6.5862,8.1104-11.0929,15.0318-11.0929,3.507-.0123,6.9174,1.156,9.6736,3.3137l-1.8389,2.3325c-2.2317-1.7463-4.9942-2.6925-7.8368-2.6822-7.0264,0-12.7219,5.6627-12.7219,12.6499s5.6956,12.6499,12.7219,12.6499c2.9537,0,5.8149-1.0223,8.0939-2.8879Z" style="fill:#5f5b35;"/><path d="M614.5438,157.1401l12.9153-31.8635,12.759,31.8635h-3.2088l-2.6287-6.5636h-13.9623l-2.6616,6.5636h-3.2129ZM621.6196,147.6126h11.5742l-5.7511-14.3633-5.8231,14.3633Z" style="fill:#5f5b35;"/><path d="M652.1049,157.1401h-2.9805v-31.232h11.6606c5.3562,0,9.8526,4.013,10.4264,9.3095.5759,5.2945-2.9558,10.1693-8.1885,11.3047l8.1371,10.6177h-3.7497l-7.9499-10.375h-7.3534l-.0021,10.375ZM652.107,143.8011h8.6781c4.1447,0,7.5056-3.3425,7.5056-7.4645s-3.361-7.4624-7.5056-7.4624h-8.6781v14.9269Z" style="fill:#5f5b35;"/><path d="M700.4113,157.1401h-18.9523v-31.2299h18.9523v2.964h-15.9698v14.9269h13.9479v2.964h-13.9479v7.409h15.9698v2.9661Z" style="fill:#5f5b35;"/></g></g></svg>