<?xml version="1.0" encoding="UTF-8"?><svg id="Layer_2" xmlns="http://www.w3.org/2000/svg" viewBox="0 0 900 858.1756"><g id="Components"><g id="_3446a1cf-2752-4387-b18b-ff537235151c_4"><path d="M550.4571,146.9846L162.6332,5.0738c-21.9256-8.3741-46.4794,1.5137-57.0073,22.957L4.9114,233.1654c-5.7148,11.6398-6.4769,25.1892-2.1053,37.4267l202.1838,552.386c11.7092,32.7775,52.8668,41.56,76.3338,16.2888l228.5708-192.5339c6.6218-7.131,10.8997-16.2128,12.2321-25.9685l57.7838-423.076c2.9913-21.9015-9.2595-42.9912-29.4534-50.704Z" style="opacity:.3;"/><path d="M361.9718,179.5529L717.0272,4.0564c17.5107-8.6552,38.7276-3.0751,49.7046,13.0723l126.509,186.098c7.1869,10.5722,8.7472,23.9873,4.1781,35.9245l-236.0095,593.8903c-10.7837,28.1739-48.0881,34.0424-67.0142,10.5423l-202.6601-234.2245c-4.6277-5.7462-7.5339-12.6834-8.3827-20.0101l-42.8947-370.2674c-1.8991-16.3931,6.7104-32.2118,21.5141-39.529Z" style="opacity:.39;"/></g></g></svg>