<?xml version="1.0" encoding="UTF-8"?><svg id="Layer_2" xmlns="http://www.w3.org/2000/svg" viewBox="0 0 900 476.8598"><g id="Components"><g id="a96f3fdd-4fe5-46cb-a557-0bc47f0d01a1_5"><path d="M475.0488,36.6503L378.3456,1.2652c-5.4671-2.0881-11.5895.3774-14.2147,5.7243l-25.113,51.15c-1.425,2.9024-1.615,6.2809-.5249,9.3323l50.4142,137.7365c2.9197,8.173,13.1823,10.3629,19.0337,4.0616l56.9937-48.008c1.6511-1.7781,2.7178-4.0426,3.0501-6.4752l14.4083-105.4933c.7459-5.4611-2.3088-10.7198-7.3441-12.6429Z" style="fill:#fff; opacity:.3;"/><path d="M428.0503,44.7712L516.5828,1.0115c4.3663-2.1581,9.6567-.7668,12.3938,3.2596l31.5448,46.4032c1.7921,2.6362,2.1811,5.9812,1.0418,8.9577l-58.8486,148.0855c-2.6889,7.0251-11.9907,8.4884-16.7099,2.6287l-50.5329-58.4035c-1.1539-1.4328-1.8786-3.1626-2.0902-4.9895l-10.6957-92.3255c-.4735-4.0876,1.6732-8.032,5.3645-9.8565Z" style="fill:#fff; opacity:.39;"/><path d="M8.2389,407.5326l62.0545-.6596c283.0167-2.7896,828.604-6.2657,828.6274-3.8904.3625.0444.363.0923.363.0923.7143.0861.7153.182.7162.2779.0014.141-.3486.2884-1.0708.4845-1.4318.584-46.2671,1.2643-115.85,1.9502-211.6237,2.0859-649.98,4.2681-774.8132,4.5012-5.3776.005-8.2595-.6803-8.266-1.3447s2.8618-1.3584,8.2389-1.4114Z" style="fill:#fff;"/><path d="M59.9539,298.9741v7.4592h15.5961v67.4804h6.6278v-67.4804h15.5961v-7.4592h-37.8201Z" style="fill:#fff;"/><path d="M138.818,298.9741c-18.7413,0-33.9998,16.8171-33.9998,37.4558,0,20.6654,15.2585,37.4838,33.9998,37.4838,18.7679,0,33.9998-16.8184,33.9998-37.4838,0-20.6387-15.2319-37.4558-33.9998-37.4558ZM138.818,366.4532c-15.1011,0-27.3707-13.4651-27.3707-30.0233,0-16.5315,12.2695-29.9967,27.3707-29.9967s27.3973,13.4651,27.3973,29.9967c0,16.5582-12.2949,30.0233-27.3973,30.0233Z" style="fill:#fff;"/><path d="M220.8017,298.9741c-18.7413,0-33.9998,16.8171-33.9998,37.4558,0,20.6654,15.2585,37.4838,33.9998,37.4838,18.7679,0,34.0252-16.8184,34.0252-37.4838,0-20.6387-15.2573-37.4558-34.0252-37.4558ZM220.8017,366.4532c-15.0758,0-27.3707-13.4651-27.3707-30.0233,0-16.5315,12.2949-29.9967,27.3707-29.9967,15.1024,0,27.3973,13.4651,27.3973,29.9967,0,16.5582-12.2949,30.0233-27.3973,30.0233Z" style="fill:#fff;"/><path d="M261.8723,298.9741v7.4592h15.5961v67.4804h6.6278v-67.4804h15.5961v-7.4592h-37.8201Z" style="fill:#fff;"/><path d="M350.7961,298.9741v47.8533h-27.6575v-47.8533h-6.6025v74.9396h6.6025v-19.6259h27.6575v19.6259h6.6025v-74.9396h-6.6025Z" style="fill:#fff;"/><path d="M427.321,301.053l-23.6544,72.8606h6.525l3.3533-10.1905h27.5268l3.3787,10.1905h6.4984l-23.6277-72.8606ZM415.9869,356.2373l11.3341-35.0646,11.3328,35.0646h-22.6669Z" style="fill:#fff;"/><path d="M493.5259,349.895c7.1749-5.1733,11.4382-13.8802,11.4382-23.3168,0-15.2319-11.2821-27.6042-25.1356-27.6042h-12.6858v74.9396h6.6025v-19.6259h6.0834c2.0269,0,4.0539-.2602,6.1595-.858l.7806-.2082,10.0852,20.692h7.5112l-11.4889-23.5503.6498-.4683ZM479.8285,346.8273h-6.0834v-40.3941h6.0834c10.2147,0,18.5064,9.0457,18.5064,20.145,0,11.178-8.2918,20.2491-18.5064,20.2491Z" style="fill:#fff;"/><path d="M553.5979,306.4599v-7.4858c-19.6513.5191-34.3374,16.4541-34.3374,37.4558,0,21.0296,14.6861,36.9634,34.3374,37.4838v-7.4871c-15.883-.4937-27.7349-13.2303-27.7349-29.9967s11.8519-29.4763,27.7349-29.97Z" style="fill:#fff;"/><path d="M603.6875,298.9741v47.8533h-27.6575v-47.8533h-6.6025v74.9396h6.6025v-19.6259h27.6575v19.6259h6.6012v-74.9396h-6.6012Z" style="fill:#fff;"/><path d="M626.1196,298.9741v74.9396h6.6278v-74.9396h-6.6278Z" style="fill:#fff;"/><path d="M648.5518,298.9741v7.4592h15.5961v67.4804h6.6291v-67.4804h15.5961v-7.4592h-37.8214Z" style="fill:#fff;"/><path d="M741.037,306.4332v-7.4592h-37.8214v74.9396h37.8214v-7.4605h-31.2189v-12.1654h22.6403v-7.4605h-22.6403v-40.3941h31.2189Z" style="fill:#fff;"/><path d="M786.4217,306.4599v-7.4858c-19.6513.5191-34.364,16.4541-34.364,37.4558,0,21.0296,14.7128,36.9634,34.364,37.4838v-7.4871c-15.8817-.4937-27.7349-13.2303-27.7349-29.9967s11.8532-29.4763,27.7349-29.97Z" style="fill:#fff;"/><path d="M802.226,298.9741v7.4592h15.5961v67.4804h6.6278v-67.4804h15.5961v-7.4592h-37.8201Z" style="fill:#fff;"/><path d="M287.9947,457.3926c0,10.6436-8.6789,19.2718-19.3809,19.2718h-8.0824v-38.541h8.0824c10.702,0,19.3809,8.6281,19.3809,19.2692ZM284.3139,457.3926c0-8.6231-7.0289-15.6114-15.7002-15.6114h-4.4016v31.2227h4.4016c8.6713,0,15.7002-6.9883,15.7002-15.6114Z" style="fill:#fff;"/><path d="M323.7713,476.6644h-23.3891v-38.541h23.3891v3.6579h-19.7084v18.4214h17.2131v3.6579h-17.2131v9.1434h19.7084v3.6604Z" style="fill:#fff;"/><path d="M339.6416,476.6644h-3.6782v-39.0005l23.5237,28.8696v-28.4127h3.6807v38.739l-23.5262-28.8696v28.6741Z" style="fill:#fff;"/><path d="M383.9195,441.7812h-9.9887v-3.6579h23.6531v3.6579h-9.9862v34.8831h-3.6782v-34.8831Z" style="fill:#fff;"/><path d="M400.3711,476.6644l15.9388-39.3229,15.7459,39.3229h-3.96l-3.2441-8.1001h-17.2309l-3.2847,8.1001h-3.965ZM409.1033,464.9063h14.2838l-7.0975-17.7259-7.1863,17.7259Z" style="fill:#fff;"/><path d="M463.6212,476.6644h-20.6324v-38.5436h3.6807v34.8831h16.9517v3.6604Z" style="fill:#fff;"/><path d="M522.8505,469.44l2.343,2.8227c-6.5923,5.4018-15.9642,5.8765-23.0744,1.1677-7.1076-4.7063-10.2807-13.4867-7.8057-21.6173,2.4724-8.1281,10.009-13.6898,18.5509-13.6898,4.328-.0152,8.5367,1.4266,11.9382,4.0894l-2.2694,2.8786c-2.7542-2.1551-6.1633-3.3228-9.6714-3.3101-8.6713,0-15.7002,6.9883-15.7002,15.6114s7.0289,15.6114,15.7002,15.6114c3.6452,0,7.1761-1.2616,9.9887-3.564Z" style="fill:#fff;"/><path d="M533.4992,476.6644l15.9388-39.3229,15.7459,39.3229h-3.96l-3.2441-8.1001h-17.2309l-3.2847,8.1001h-3.965ZM542.2314,464.9063h14.2838l-7.0975-17.7259-7.1863,17.7259Z" style="fill:#fff;"/><path d="M579.8535,476.6644h-3.6782v-38.5436h14.3904c6.6101,0,12.1591,4.9525,12.8673,11.4889.7108,6.5339-3.6477,12.55-10.1055,13.9512l10.042,13.1034h-4.6276l-9.811-12.8039h-9.0749l-.0025,12.8039ZM579.8561,460.2026h10.7096c5.1149,0,9.2627-4.125,9.2627-9.212s-4.1478-9.2094-9.2627-9.2094h-10.7096v18.4214Z" style="fill:#fff;"/><path d="M639.4686,476.6644h-23.3891v-38.541h23.3891v3.6579h-19.7084v18.4214h17.2131v3.6579h-17.2131v9.1434h19.7084v3.6604Z" style="fill:#fff;"/></g></g></svg>