<?xml version="1.0" encoding="UTF-8"?><svg id="Layer_2" xmlns="http://www.w3.org/2000/svg" viewBox="0 0 900 214.2356"><g id="Components"><g id="_154c6430-4852-43fa-8a45-8d5ffb179a58_13"><path d="M891.5565,186.7254s-.001-.039-.3598-.0738c-.0072-.6633-64.6342-.6438-160.7868-.2204.569-43.5467,1.1215-118.3268.7238-158.6115-.163-16.5614-.4931-27.2313-1.0334-27.5686-.1804-.1702-.3168-.2522-.449-.2512-.0912.001-.1815.0021-.2676.1722,0,0-.0451.001-.0892.0871-2.1221.0205-2.6941,116.6487-2.1826,186.1862-182.2926.815-474.9158,3.0498-657.4196,4.848l-61.5218.6458C2.8397,191.9916-.0051,192.5575,0,193.0937c.0051.5372,2.8612,1.0846,8.192,1.0713,114.7521-.3844,496.6994-2.6101,718.9445-4.5804.0215,2.7228.0451,5.3759.0697,7.9296l.1907,14.7695c.0133,1.2804.6469,1.9581,1.2732,1.9519s1.2927-.6971,1.3255-1.9775c.1169-5.3729.245-13.2102.3732-22.7021,16.2498-.1445,31.6538-.2881,45.9783-.4295,68.9849-.6797,113.4358-1.3102,114.8567-1.7848.7156-.1599,1.0631-.2799,1.0621-.3937-.001-.0769-.0021-.1548-.7094-.2225Z" style="fill:#7f7947;"/><path d="M68.3114,35.0532v6.0249h12.5971v54.5046h5.3534v-54.5046h12.5971v-6.0249h-30.5477Z" style="fill:#7f7947;"/><path d="M132.0107,35.0532c-15.1375,0-27.4619,13.5628-27.4619,30.2534s12.3245,30.276,27.4619,30.276,27.4619-13.5844,27.4619-30.276-12.3245-30.2534-27.4619-30.2534ZM132.0107,89.5568c-12.1984,0-22.1291-10.8759-22.1291-24.2501,0-13.3527,9.9307-24.2286,22.1291-24.2286s22.1291,10.8759,22.1291,24.2286c0,13.3742-9.9307,24.2501-22.1291,24.2501Z" style="fill:#7f7947;"/><path d="M198.2297,35.0532c-15.1375,0-27.4619,13.5628-27.4619,30.2534s12.3245,30.276,27.4619,30.276c15.159,0,27.4619-13.5844,27.4619-30.276s-12.3029-30.2534-27.4619-30.2534ZM198.2297,89.5568c-12.1984,0-22.1075-10.8759-22.1075-24.2501,0-13.3527,9.9092-24.2286,22.1075-24.2286s22.1291,10.8759,22.1291,24.2286c0,13.3742-9.9307,24.2501-22.1291,24.2501Z" style="fill:#7f7947;"/><path d="M231.4018,35.0532v6.0249h12.5971v54.5046h5.3329v-54.5046h12.6187v-6.0249h-30.5487Z" style="fill:#7f7947;"/><path d="M303.2275,35.0532v38.6515h-22.3392v-38.6515h-5.3534v60.5294h5.3534v-15.852h22.3392v15.852h5.3318v-60.5294h-5.3318Z" style="fill:#7f7947;"/><path d="M365.0373,36.7119l-19.1059,58.8707h5.2703l2.7074-8.2515h22.2347l2.7085,8.2515h5.2693l-19.0843-58.8707ZM355.8621,81.3053l9.1752-28.322,9.1536,28.322h-18.3288Z" style="fill:#7f7947;"/><path d="M418.5116,76.1826c5.7737-4.1785,9.2387-11.2111,9.2387-18.8332,0-12.3029-9.1126-22.2962-20.3033-22.2962h-10.2454v60.5294h5.3329v-15.852h4.9126c1.6382,0,3.2754-.2307,4.9761-.693l.6305-.1681,8.1459,16.7132h6.0669l-9.2797-19.0218.5249-.3783ZM407.4471,73.7048h-4.9126v-32.6267h4.9126c8.2515,0,14.9489,7.3063,14.9489,16.2713,0,9.0286-6.6974,16.3554-14.9489,16.3554Z" style="fill:#7f7947;"/><path d="M467.0324,41.0996v-6.0464c-15.8725.4193-27.7346,13.2902-27.7346,30.2534,0,16.9858,11.8621,29.8557,27.7346,30.2545v-6.0259c-12.8288-.3988-22.4018-10.6862-22.4018-24.2286s9.5729-23.8083,22.4018-24.2071Z" style="fill:#7f7947;"/><path d="M507.4892,35.0532v38.6515h-22.3382v-38.6515h-5.3329v60.5294h5.3329v-15.852h22.3382v15.852h5.3329v-60.5294h-5.3329Z" style="fill:#7f7947;"/><path d="M525.6089,35.0532v60.5294h5.3329v-60.5294h-5.3329Z" style="fill:#7f7947;"/><path d="M543.7275,35.0532v6.0249h12.5971v54.5046h5.3544v-54.5046h12.5971v-6.0249h-30.5487Z" style="fill:#7f7947;"/><path d="M618.4287,41.0781v-6.0249h-30.5487v60.5294h30.5487v-6.0259h-25.2158v-9.8261h18.2868v-6.0259h-18.2868v-32.6267h25.2158Z" style="fill:#7f7947;"/><path d="M655.0648,41.0996v-6.0464c-15.8715.4193-27.7346,13.2902-27.7346,30.2534,0,16.9858,11.8631,29.8557,27.7346,30.2545v-6.0259c-12.8063-.3988-22.4018-10.6862-22.4018-24.2286s9.5955-23.8083,22.4018-24.2071Z" style="fill:#7f7947;"/><path d="M667.8516,35.0532v6.0249h12.5971v54.5046h5.3534v-54.5046h12.5971v-6.0249h-30.5477Z" style="fill:#7f7947;"/><path d="M414.2798,141.071c0,8.597-7.01,15.566-15.6542,15.566h-6.5282v-31.13h6.5282c8.6441,0,15.6542,6.969,15.6542,15.564ZM411.3068,141.071c0-6.9649-5.6773-12.6094-12.6812-12.6094h-3.5552v25.2189h3.5552c7.0039,0,12.6812-5.6445,12.6812-12.6094Z" style="fill:#7f7947;"/><path d="M443.1769,156.637h-18.8916v-31.13h18.8916v2.9545h-15.9187v14.8791h13.9032v2.9545h-13.9032v7.3852h15.9187v2.9566Z" style="fill:#7f7947;"/><path d="M455.9955,156.637h-2.9709v-31.5011l19.0003,23.3182v-22.9492h2.973v31.2899l-19.0023-23.3182v23.1604Z" style="fill:#7f7947;"/><path d="M491.7592,128.4616h-8.068v-2.9545h19.1048v2.9545h-8.0659v28.1754h-2.9709v-28.1754Z" style="fill:#7f7947;"/><path d="M505.0473,156.637l12.8739-31.7615,12.7181,31.7615h-3.1985l-2.6203-6.5426h-13.9175l-2.6531,6.5426h-3.2026ZM512.1004,147.1399h11.5371l-5.7327-14.3174-5.8044,14.3174Z" style="fill:#7f7947;"/><path d="M556.135,156.637h-16.665v-31.132h2.973v28.1754h13.692v2.9566Z" style="fill:#7f7947;"/><path d="M603.975,150.8018l1.8924,2.28c-5.3247,4.3631-12.8944,4.7465-18.6374.9431-5.7409-3.8013-8.3038-10.8933-6.3047-17.4605,1.997-6.5651,8.0844-11.0574,14.9837-11.0574,3.4958-.0123,6.8952,1.1523,9.6426,3.3031l-1.833,2.3251c-2.2246-1.7407-4.9782-2.6839-7.8117-2.6736-7.0039,0-12.6812,5.6445-12.6812,12.6094s5.6773,12.6094,12.6812,12.6094c2.9443,0,5.7962-1.019,8.068-2.8786Z" style="fill:#7f7947;"/><path d="M612.5761,156.637l12.8739-31.7615,12.7181,31.7615h-3.1985l-2.6203-6.5426h-13.9175l-2.6531,6.5426h-3.2026ZM619.6292,147.1399h11.5371l-5.7327-14.3174-5.8044,14.3174Z" style="fill:#7f7947;"/><path d="M650.0169,156.637h-2.9709v-31.132h11.6232c5.339,0,9.821,4.0002,10.3931,9.2797.5741,5.2775-2.9463,10.1368-8.1623,11.2685l8.1111,10.5837h-3.7377l-7.9245-10.3418h-7.3299l-.0021,10.3418ZM650.019,143.3407h8.6503c4.1314,0,7.4816-3.3318,7.4816-7.4406s-3.3502-7.4385-7.4816-7.4385h-8.6503v14.8791Z" style="fill:#7f7947;"/><path d="M698.1686,156.637h-18.8916v-31.13h18.8916v2.9545h-15.9187v14.8791h13.9032v2.9545h-13.9032v7.3852h15.9187v2.9566Z" style="fill:#7f7947;"/><path d="M827.9808,129.0505c3.8211,4.8621,7.0308,9.3868,10.9659,14.4228,4.6855,4.5871,8.4357,16.4947,16.2659,13.7173,5.6594,1.7628,18.2989-40.5433,22.2155-47.3325,5.1699-12.8297,10.5621-25.6984,15.5602-38.6715,1.9785-8.0861,9.7431-16.5745,6.0108-24.9478-33.1452-49.0094-17.8114-38.5462-69.671-16.2514-5.0568,2.5369-10.3911,4.754-15.456,7.2537-7.3279,2.0607-13.4997,7.6641-11.3647,15.9168,1.1836,10.8209,2.6209,21.6428,4.0323,32.5111,1.2718,5.8462,1.2653,13.0682,2.5752,19.1622.2806,1.3055,2.209,1.1091,2.2634-.2251.5459-13.4022-2.7516-27.0183-3.3934-40.5793.1801-5.9037-2.7812-12.6857-.2048-18.1631,8.0725-5.9957,18.7089-8.4288,27.6724-13.2672,11.2432-5.1816,21.9256-10.6192,33.1086-15.9743,5.5485-2.5274,7.3546,5.5774,10.4411,8.6109,4.9479,7.9563,10.4197,15.4761,15.6319,23.0626,2.3761,3.0397-.7844,6.3542-1.5331,9.6381-3.0094,8.3109-6.0787,16.6063-9.3242,24.6977-6.3988,17.7327-13.7439,34.6922-20.5488,52.1697-1.7236,4.4395-3.3498,8.6646-5.1306,12.9438-1.1993,2.8667-2.2085,7.3393-6.2445,6.2499-7.2249-7.4236-13.5768-18.4375-21.1471-26.5498-1.0021-2.4467-3.5445-5.2998-5.2971-7.5036-1.3089-1.646-7.2665-9.082-7.6481-9.46-.4832-.4787-.9893-.8887-1.3558-.8059-.161.0364-.2649.0831-.4079.1394-1.3019.9461.2829,2.5493,1.0318,3.751.9129,1.7986,3.7048,5.3735,6.234,9.0332,1.4418,1.9341,4.4741,6.1882,4.718,6.4516Z" style="fill:#7f7947;"/><path d="M842.4416,60.8088c-1.8477,12.7352-4.8406,26.5476-6.376,39.5159-1.7382,4.5386-1.4547,11.6516-3.4846,16.6101-10.0901,10.5474-20.1513,21.2774-30.3548,31.7064-7.7404,9.6508-11.6656,4.4203-14.1503-5.2274-2.1187-6.1605-4.2868-12.3605-6.4507-18.4511-8.0778-22.1225-15.5433-44.3543-23.3583-66.5697-.7219-7.0688,9.1753-19.6518,11.8995-27.0152,2.5492-3.4138,3.186-8.9675,7.0516-10.9689,8.9327,1.9467,17.4141,6.7698,26.2866,9.4789,5.6241,1.8683,51.6655,19.9846,26.5382,6.5506-13.8735-6.08-28.2254-11.1623-42.2032-17.1538-15.4025-8.7657-16.906,1.2061-23.5464,12.93-2.5632,6.9402-13.7771,20.5422-10.6599,27.1533,5.2473,16.6632,11.2587,33.6833,17.447,50.1922,4.1846,12.5751,9.4796,25.3846,13.7431,38.0796,7.4787,22.1835,20.3889,3.3839,29.5263-5.8907,7.0797-7.7445,15.2314-15.1563,21.7938-23.3988,2.2154-6.8193,2.7111-14.4086,3.8301-21.6541,1.8777-10.875,4.3207-23.4424,5.5073-35.013,1.1172-2.9319,1.2218-7.1526,2.033-10.403.4436-2.7737.9048-5.1458.6085-6.973-.328-3.5633-2.8197-6.517-5.8111-7.9027-.856-.3965-1.8011-.9399-1.9934-.0848.0218.1725.07.3504.2233.5474,1.6132,1.856,4.5283,4.1585,4.5927,7.874.0286,1.6474-1.2541,8.2551-1.2541,8.2551-.4118,2.3619-1.4152,7.4577-1.4382,7.8127ZM846.4591,53.239c.1467-.7378.1661.3926.0023.8024-.001-.3642-.0017-.5841-.0023-.8024Z" style="fill:#7f7947;"/></g></g></svg>