<?xml version="1.0" encoding="UTF-8"?><svg id="Layer_2" xmlns="http://www.w3.org/2000/svg" viewBox="0 0 900 898.78"><g id="Components"><g id="_823d5a61-5b02-4b7b-ada3-c41923d15973_16"><g style="opacity:.79;"><path d="M458.7943,721.1848c23.4087,29.7865,43.0725,57.5057,67.1799,88.3575,28.7043,28.1016,51.6793,101.0502,99.6485,84.0355,34.6705,10.7995,112.1031-248.3773,136.0973-289.9695,31.6723-78.598,64.7058-157.4343,95.3252-236.9104,12.1207-49.5371,59.6887-101.5392,36.8233-152.8359-203.055-300.243-109.1168-236.1426-426.8206-99.5601-30.979,15.5416-63.6584,29.124-94.6867,44.4377-44.8924,12.6244-82.7024,46.9523-69.6229,97.5102,7.2507,66.2912,16.0564,132.5885,24.703,199.1705,7.7913,35.815,7.7515,80.059,15.7763,117.3919,1.7191,7.9977,13.5331,6.7944,13.866-1.3792,3.3446-82.1051-16.8567-165.5203-20.7886-248.598,1.1032-36.1674-17.0382-77.7154-1.2544-111.2714,49.4539-36.7309,114.6147-51.6367,169.5276-81.2781,68.8787-31.7438,134.3209-65.0556,202.8305-97.8625,33.9914-15.4835,45.0561,34.1683,63.9645,52.7523,30.3118,48.7419,63.8333,94.8099,95.7646,141.2865,14.5563,18.6222-4.8053,38.9272-9.3919,59.0451-18.4364,50.9144-37.2397,101.734-57.1224,151.3038-39.2004,108.6346-84.198,212.5321-125.8864,319.6036-10.559,27.1977-20.5214,53.0814-31.4313,79.2967-7.3469,17.5621-13.53,44.9624-38.2551,38.288-44.2613-45.4787-83.1747-112.9523-129.552-162.6504-6.1394-14.9892-21.7145-32.4675-32.451-45.9688-8.0187-10.0836-44.5163-55.6383-46.8542-57.9544-2.9604-2.9327-6.0607-5.4443-8.3061-4.9373-.9864.2227-1.6228.5091-2.4989.8541-7.9755,5.796,1.7331,15.6174,6.3212,22.9793,5.5923,11.0183,22.6964,32.919,38.191,55.3396,8.8328,11.8484,27.4094,37.91,28.9038,39.5237Z" style="fill:#b1c6b7;"/></g><g style="opacity:.79;"><path d="M547.3844,303.1207c-11.3193,78.0187-29.6548,162.6366-39.0606,242.0836-10.6489,27.8047-8.9119,71.3806-21.3474,101.7575-61.8144,64.6157-123.4514,130.3505-185.9603,194.2407-47.4193,59.1231-71.4664,27.0796-86.688-32.0241-12.9796-37.7405-26.2622-75.7231-39.5186-113.0356-49.4865-135.5276-95.2218-271.7245-143.098-407.8214-4.4226-43.3048,56.2097-120.3914,72.899-165.5015,15.617-20.9137,19.5181-54.9369,43.1998-67.198,54.7238,11.9261,106.6829,41.4734,161.0378,58.0697,34.4547,11.4456,316.5143,122.43,162.5793,40.1304-84.9923-37.2474-172.9154-68.383-258.5464-105.0883C118.5219-4.9667,109.3109,56.1228,68.6302,127.9458,52.9277,170.4629-15.7712,253.7918,3.3253,294.2928c32.1462,102.0828,68.9736,206.3517,106.8841,307.4889,25.6357,77.0379,58.0741,155.5116,84.1932,233.2845,45.8159,135.9014,124.9069,20.7304,180.8847-36.0881,43.3718-47.4446,93.3112-92.8512,133.5136-143.3466,13.5722-41.7767,16.6089-88.2706,23.4638-132.658,11.5032-66.6227,26.4694-143.6132,33.7391-214.4974,6.8443-17.9618,7.4851-43.8185,12.4545-63.731,2.7175-16.9922,5.5431-31.5244,3.7277-42.718-2.0095-21.8294-17.2739-39.9247-35.6003-48.4134-5.2441-2.4291-11.0341-5.758-12.2122-.5195.1333,1.0571.4291,2.1468,1.3681,3.3536,9.883,11.3703,27.7414,25.4757,28.136,48.2377.175,10.0926-7.6827,50.5726-7.6827,50.5726-2.5225,14.4693-8.6696,45.6877-8.8105,47.8626ZM571.9965,256.746c.8989-4.52,1.0173,2.4051.014,4.9158-.0064-2.231-.0105-3.5781-.014-4.9158Z" style="fill:#b1c6b7;"/></g></g></g></svg>